<svg xmlns="http://www.w3.org/2000/svg" x="0px" y="0px" width="100" height="100" viewBox="0,0,256,256" class="skills__icon">
<g fill="#20bc54" fill-rule="nonzero" stroke="none" stroke-width="1" stroke-linecap="butt" stroke-linejoin="miter" stroke-miterlimit="10" stroke-dasharray="" stroke-dashoffset="0" font-family="none" font-weight="none" font-size="none" text-anchor="none" style="mix-blend-mode: normal"><g transform="scale(8,8)"><path d="M17.42578,1.89453c-4.14062,0.08984 -6.50781,1.95313 -6.64062,2.05859c-0.10547,0.03516 -2.83984,0.97266 -3.39453,3.41797c-0.08594,0.03516 -0.10937,0.03125 -0.23437,0.10547c-0.25,0.16406 -0.5625,0.43359 -0.81641,0.86719c-0.48437,0.82422 -0.6875,2.23828 -0.16016,4.4375c-0.73437,0.56641 -1.13281,1.45313 -1.14062,2.39063c-0.00781,1.08984 0.36328,2.23047 1.10938,3.02734c0.66797,0.71484 1.31641,1.02344 1.81641,1.12891c0.19531,0.04297 0.20312,0.00391 0.34766,0c0.08984,0.46875 0.42969,1.82422 1.16016,3.23047c-0.42187,0.23828 -1.62891,0.91406 -3.05078,1.73828c-0.80078,0.46484 -1.58984,0.92969 -2.1875,1.29688c-0.29687,0.1875 -0.54297,0.34766 -0.73047,0.47656c-0.09375,0.06641 -0.16797,0.12109 -0.23828,0.17969c-0.03516,0.02734 -0.06641,0.05469 -0.10547,0.09766c-0.03906,0.04688 -0.11719,0.07422 -0.14453,0.3125l-0.03906,0.38281l1.1875,2.95703h23.70313l0.10938,-0.35156c0,0 0.27344,-0.86719 0.53516,-1.84766c0.13281,-0.48828 0.26172,-1.00391 0.35938,-1.46094c0.09375,-0.46094 0.16406,-0.83203 0.14453,-1.17187c-0.01562,-0.19531 -0.07812,-0.26562 -0.125,-0.33984c-0.05078,-0.07422 -0.10156,-0.13672 -0.16016,-0.20312c-0.11719,-0.13281 -0.26172,-0.26953 -0.43359,-0.42578c-0.33984,-0.30859 -0.77344,-0.66797 -1.20703,-1.01562c-0.69922,-0.55859 -1.14453,-0.88672 -1.39062,-1.07422c0.21094,-0.26172 0.66406,-0.73437 1.24219,-2.19922c0.70703,-1.78125 1.33594,-4.48828 1.07422,-8.19531c-0.25,-3.50781 -1.46094,-5.94922 -3.24609,-7.51172c-1.44531,-1.25781 -3.23437,-1.92187 -5.13281,-2.17969v-0.00781c-0.01562,0 -0.02734,0.00391 -0.04297,0c-0.43359,-0.05469 -0.87109,-0.09766 -1.31641,-0.11719c-0.29297,-0.00781 -0.57422,-0.01172 -0.85156,-0.00391zM18.51563,3.01563c0.32031,-0.01953 0.65234,-0.01562 0.99609,0c1.74219,0.23828 3.33984,0.83984 4.60156,1.94531c0.69141,0.60547 1.28906,1.37109 1.76563,2.31641c-0.37109,-0.14453 -0.74219,-0.19922 -1.07031,-0.18359c-0.84766,0.04688 -1.46875,0.44922 -1.46875,0.44922l0.53516,0.84766c0,0 0.43359,-0.26953 0.98438,-0.29687c0.53906,-0.02734 1.15234,0.11328 1.74219,1.125c0.19922,0.76172 0.34375,1.59766 0.41406,2.53906c-0.03125,-0.05469 -0.05469,-0.10156 -0.09375,-0.16406c-0.11328,-0.21094 -0.26172,-0.47266 -0.40625,-0.72656c-0.29687,-0.50781 -0.58594,-0.99609 -0.58594,-0.99609l-0.85937,0.50781c0,0 0.28516,0.48438 0.57422,0.98828c0.14844,0.25 0.29297,0.50781 0.40234,0.70703c0.03516,0.05859 0.05469,0.09766 0.07813,0.14453c-0.04297,0.02344 -0.0625,0.03906 -0.15625,0.05859c-0.30469,0.06641 -0.8125,0.05859 -1.30078,-0.08594l-0.27734,0.96484c0.64063,0.18359 1.26953,0.21094 1.78516,0.09766c0.26172,-0.05469 0.49609,-0.13672 0.70313,-0.3125c0.06641,-0.05469 0.125,-0.13672 0.17969,-0.22266c0.09375,3.07422 -0.45312,5.32422 -1.04297,6.82422c-0.65234,1.64844 -1.32812,2.36719 -1.32812,2.36719l-0.375,0.41016v0.00391c-0.54687,0.53516 -1.78906,1.48047 -3.89062,1.63281c-2.92187,0.21484 -4.92187,-1.61328 -5.88672,-2.64062c-0.92187,-0.97656 -1.05078,-1.72266 -1.05078,-1.72266l-0.98437,0.19141c0,0 0.23047,1.07422 1.30859,2.21875c0.42969,0.45703 1.08984,1.08594 1.94531,1.65234c-0.0625,0.00391 -0.12891,-0.00391 -0.19531,0.00781c-0.39062,0.06641 -0.77734,0.24609 -1.04687,0.57813c-1.41797,-0.08203 -2.41406,-0.49219 -3.04687,-0.90234c-0.67969,-0.44531 -0.9375,-0.82812 -0.94531,-0.83984c-0.66797,-1.08594 -1.0625,-2.60937 -1.22266,-3.32812c0.26953,-0.13672 0.60547,-0.38281 0.95313,-0.80859l-0.77734,-0.63281c-0.27344,0.33203 -0.5,0.48438 -0.64453,0.55859c-0.00781,0.00391 0,0 -0.00781,0.00391l-0.25,0.07813c0,0 -0.09766,0.04297 -0.39453,-0.01953c-0.29688,-0.0625 -0.75,-0.25 -1.29688,-0.83594c-0.52734,-0.5625 -0.84766,-1.49219 -0.83984,-2.33203c0.00781,-0.84375 0.3125,-1.52344 0.88281,-1.8125l0.01563,-0.01172c0.67578,-0.375 1.125,-0.42578 1.42969,-0.36328c0.30469,0.0625 0.51563,0.23828 0.69531,0.49219c0.36328,0.51172 0.46875,1.28125 0.46875,1.28125l0.07031,0.62109l2.02734,-0.69922l-0.05078,-0.40234c0,0 -0.09375,-0.69141 -0.39062,-1.53906c-0.18359,-0.51172 -0.10156,-1.17578 0.09375,-1.86328c0.19141,-0.6875 0.47656,-1.36719 0.59375,-1.98828c0.125,-0.65625 -0.03516,-1.125 -0.21484,-1.44531c0.35938,-0.72656 2.27344,-4.17578 6.85547,-4.4375zM14.14063,3.41016c-1.69141,1.07812 -2.70312,2.47266 -3.19141,3.27734l-0.13672,0.01563c-0.92578,0.08594 -1.72656,0.23438 -2.32812,0.36328c0.69531,-1.48047 2.67188,-2.19141 2.67188,-2.19141l0.08984,-0.03125l0.07031,-0.05859c0,0 0.98438,-0.8125 2.82422,-1.375zM16.45313,7.32031c-1.04687,0.05469 -1.76172,0.57422 -2.14453,1.15625c-0.51562,0.77734 -0.54297,1.62109 -0.54297,1.62109l0.99609,0.05469c0,0 0.04297,-0.61719 0.37891,-1.125c0.33594,-0.50781 0.85156,-0.94922 2.23828,-0.625l0.23047,-0.97266c-0.42187,-0.09766 -0.80859,-0.12891 -1.15625,-0.10937zM10.64844,7.74219c0.20313,0.22656 0.36328,0.34375 0.24609,0.96875c-0.08203,0.4375 -0.36719,1.14063 -0.58203,1.91016c-0.21094,0.76563 -0.36328,1.62891 -0.07031,2.46094c0.1875,0.53125 0.20313,0.73047 0.24219,0.94922l-0.17187,0.05859c-0.0625,-0.34375 -0.05078,-0.64453 -0.42969,-1.17969c-0.28516,-0.39844 -0.71875,-0.77344 -1.32031,-0.89453c-0.44531,-0.08984 -0.95312,-0.03125 -1.52344,0.19141c-0.39453,-1.84375 -0.14062,-2.83984 0.16406,-3.35547c0.16406,-0.28516 0.35156,-0.44141 0.48828,-0.52734c0.13672,-0.08594 0.19141,-0.09766 0.19141,-0.09766h0.00781c0,0 1.36719,-0.32031 2.75781,-0.48438zM18.64844,10.02734l-0.92187,0.38672c0,0 0.67969,1.60938 1.12891,2.40234c-0.03125,0.01953 -0.03516,0.03125 -0.14062,0.05469c-0.33594,0.07422 -0.97656,0.03906 -1.70312,-0.27734l-0.40234,0.91797c0.89063,0.38672 1.69922,0.47266 2.31641,0.33594c0.30859,-0.06641 0.58984,-0.17969 0.79297,-0.4375c0.20703,-0.25781 0.22656,-0.69531 0.05078,-0.98437c-0.3125,-0.51953 -1.12109,-2.39844 -1.12109,-2.39844zM22.51953,10.625l-1,0.01172c0,0 0.02734,2.37891 1.93359,4.10547h-0.00391c0.80078,0.72656 1.13672,1.19922 1.19141,1.36719c0.02734,0.08594 0.01953,0.07813 0.00391,0.10938c-0.01172,0.03125 -0.07031,0.10938 -0.1875,0.21875c-0.14844,0.13281 -0.73437,0.42578 -1.36719,0.61719c-0.63281,0.19141 -1.34375,0.31641 -1.79297,0.30469c-0.16797,-0.00781 -0.19141,-0.03906 -0.21875,-0.06641c-0.03125,-0.03125 -0.0625,-0.09766 -0.07812,-0.20312c-0.03125,-0.20703 0.02734,-0.47266 0.02734,-0.47266l-0.97266,-0.24609c0,0 -0.11328,0.40234 -0.04297,0.86719c0.03516,0.23438 0.12109,0.50391 0.33203,0.73438c0.21484,0.23047 0.55469,0.375 0.92578,0.38672c0.64063,0.01563 1.40234,-0.13281 2.10938,-0.34766c0.70703,-0.21484 1.33203,-0.45703 1.74609,-0.83203c0.16406,-0.14844 0.32813,-0.31641 0.43359,-0.55469c0.10547,-0.23828 0.12109,-0.54687 0.03516,-0.82422c-0.17969,-0.54687 -0.63281,-1.03516 -1.47266,-1.80078c-1.57031,-1.42187 -1.60156,-3.375 -1.60156,-3.375zM7.6875,13.91406c-0.32031,0.01953 -0.65625,0.16406 -0.96094,0.41406l0.5625,0.67578c-0.13672,0.41016 -0.27344,1.01172 -0.16016,1.63281l0.98438,-0.17969c-0.05469,-0.29687 0.02734,-0.69922 0.11719,-1.03516c0.125,0.25391 0.22266,0.50391 0.22266,0.50391l0.96484,-0.25391c0,0 -0.14453,-0.60937 -0.53516,-1.125c-0.19922,-0.25781 -0.47656,-0.52344 -0.88281,-0.60937c-0.10156,-0.02344 -0.20703,-0.03125 -0.3125,-0.02344zM25.28516,17.76563c-0.76172,0.86328 -2.15625,0.98047 -2.15625,0.98047l0.05859,1c0,0 1.74219,-0.05859 2.84766,-1.32422zM18.57422,18.12109l-0.63281,0.77344c2.12109,1.72266 4.68359,0.98438 4.68359,0.98438l-0.27734,-0.95703c0,0 -2.06641,0.58203 -3.77344,-0.80078zM18.29688,19.72266l-0.96484,0.27344c0.19531,0.69531 0.67969,1.19141 1.23047,1.5c0.54688,0.30859 1.16797,0.45313 1.75391,0.53125c1.17188,0.15234 2.23438,0.00781 2.23438,0.00781l-0.12891,-0.99219c0,0 -0.96484,0.125 -1.97266,-0.00781c-0.50781,-0.0625 -1.01562,-0.19531 -1.40234,-0.41016c-0.38281,-0.21875 -0.63672,-0.48437 -0.75,-0.90234zM25.11328,22.92188c0.25,0.19141 0.67578,0.50391 1.35156,1.04297c0.42578,0.33984 0.85156,0.69141 1.16016,0.97266c0.15625,0.14453 0.28516,0.26953 0.35938,0.35547c0.01172,0.01172 0.01172,0.01172 0.01953,0.01953c-0.00391,0.12891 -0.03125,0.42969 -0.11328,0.82031c-0.08984,0.42969 -0.21875,0.93359 -0.34375,1.41016c-0.21094,0.76953 -0.34766,1.21484 -0.42187,1.45703h-1.17578l-0.03516,-0.28516c-0.04297,-0.38281 -0.25,-0.61719 -0.46094,-0.77734c0.03906,-0.07422 0.08984,-0.14453 0.11328,-0.21875c0.10547,-0.30859 0.13672,-0.63281 0.13672,-0.94922c0.00781,-0.63672 -0.10547,-1.27734 -0.14844,-1.62891c-0.06641,-0.57422 -0.28516,-1.06641 -0.65234,-1.40234c-0.12891,-0.11328 -0.27344,-0.19922 -0.42969,-0.26953c0.26563,-0.19922 0.48438,-0.39062 0.64063,-0.54687zM9.88281,23.47266c0.15234,0.35156 0.41797,0.88672 1.10156,1.77344c0.96094,1.25 2.54688,1.6875 3.29297,1.82813c0.04297,0.46484 0.09766,0.91016 0.21875,1.3125c0.0625,0.21484 0.15234,0.42188 0.27344,0.61328h-9.93359l-0.82812,-2.0625c0.02734,-0.01953 0.03516,-0.02734 0.06641,-0.04687c0.15625,-0.10937 0.39844,-0.26562 0.69141,-0.44141c0.57813,-0.35937 1.35938,-0.82422 2.15625,-1.28516c1.375,-0.79687 2.46484,-1.41016 2.96094,-1.69141zM23.69531,24.34766c0.23828,-0.04687 0.39063,0.00391 0.53516,0.13672c0.14453,0.12891 0.28516,0.37891 0.33203,0.77344c0.04688,0.40625 0.14453,0.99609 0.14063,1.50781c0,0.25391 -0.03125,0.48438 -0.07812,0.62891c-0.05078,0.14844 -0.10156,0.19531 -0.15625,0.22266c-0.39844,0.20313 -1.12891,0.16016 -1.75,0.00781c-0.28516,-0.07031 -0.53125,-0.15625 -0.72656,-0.22656c0.05859,-0.15625 0.09766,-0.32422 0.09766,-0.5c0,-0.44531 -0.20703,-0.83984 -0.52344,-1.11328c0.33594,-0.26562 0.70313,-0.55859 1.08594,-0.82812c0.24219,-0.16797 0.47266,-0.32422 0.66406,-0.43359c0.19531,-0.10937 0.36328,-0.17187 0.37891,-0.17578zM11.72266,24.54688c0.65234,0.30859 1.43359,0.57422 2.42969,0.67578c-0.01172,0.16406 -0.01172,0.33594 0.00781,0.51953c0.01172,0.08594 0.01563,0.16797 0.02344,0.25781c-0.69141,-0.18359 -1.79687,-0.56641 -2.41016,-1.36328c-0.04297,-0.05469 -0.01172,-0.03516 -0.05078,-0.08984zM16.125,24.64063c0.44531,0.03125 1.00391,0.1875 1.45313,0.41016l1.85547,0.96875c-0.1875,0.24609 -0.30469,0.55078 -0.30469,0.87891c0,0.26563 0.07813,0.51172 0.20313,0.73047c-0.65625,0.375 -1.92578,1.02734 -2.97266,1.10547c-0.34375,0.02344 -0.50781,-0.03906 -0.62109,-0.125c-0.10937,-0.08594 -0.20703,-0.23828 -0.28516,-0.50781c-0.16016,-0.53906 -0.17969,-1.45703 -0.29687,-2.47656c-0.05078,-0.40625 0.02344,-0.61719 0.10938,-0.73828c0.08984,-0.12109 0.22266,-0.19922 0.45313,-0.23437c0.11719,-0.01953 0.25391,-0.02344 0.40625,-0.01172zM21.13672,24.85938c-0.15625,0.12109 -0.35156,0.26172 -0.47656,0.35938c0.04688,-0.03516 -0.12891,0.03906 -0.30469,0.03516c-0.14453,0 -0.22266,-0.01172 -0.26172,-0.01953l-0.53125,-0.27734c0.30078,0.01953 0.60938,0.01953 0.92969,-0.00391c0.23047,-0.01562 0.42969,-0.05859 0.64453,-0.09375zM20.60938,26.42188c0.26953,0 0.48047,0.20703 0.48047,0.47656c0,0.26953 -0.21094,0.47656 -0.48047,0.47656c-0.26953,0 -0.48047,-0.20703 -0.48047,-0.47656c0,-0.26953 0.21094,-0.47656 0.48047,-0.47656zM21.44141,28.23828c0.15625,0.07031 0.44531,0.20313 0.98828,0.33984v0.42188h-1.72656l-0.32812,-0.64844c0.07813,0.01172 0.15625,0.02344 0.23438,0.02344c0.03125,0 0.05859,-0.00781 0.08984,-0.00781c0.16016,0.05078 0.3125,0.08594 0.43359,0.05078c0.1875,-0.05859 0.19922,-0.10156 0.30859,-0.17969zM24.67188,28.60938v0.01563c0,0 0.23828,0.10156 0.25,0.20313l0.01953,0.17188h-1.51172v-0.25c0.41016,0.03125 0.83594,0.00391 1.24219,-0.14062zM19.44141,28.72656l0.14063,0.27344h-0.67187c0.19141,-0.09375 0.375,-0.1875 0.53125,-0.27344z"></path></g></g>
</svg>